<svg width="18" height="18" viewBox="0 0 18 18" fill="none" xmlns="http://www.w3.org/2000/svg">
<path d="M17.3075 12.9974L16.4383 7.78905C16.3537 7.28775 15.9207 6.91991 15.4097 6.91991H7.44093V4.83658H10.5659C10.8524 4.83658 11.0868 4.6022 11.0868 4.31575V1.18749C11.0868 0.901032 10.8524 0.666656 10.5659 0.666656H2.23259C1.94614 0.666656 1.71176 0.901032 1.71176 1.18749V4.31249C1.71176 4.59895 1.94614 4.83332 2.23259 4.83332H5.35759V6.91666H2.59392C2.08611 6.91666 1.64991 7.2845 1.56528 7.7858L0.696136 12.9941C0.676605 13.1081 0.66684 13.222 0.66684 13.3359V16.2917C0.66684 16.8678 1.13233 17.3333 1.70851 17.3333H16.2918C16.868 17.3333 17.3335 16.8678 17.3335 16.2917V13.3392C17.3368 13.2253 17.327 13.1113 17.3075 12.9974ZM9.78468 8.73957C9.78468 8.45311 10.0191 8.21874 10.3055 8.21874H10.8263C11.1128 8.21874 11.3472 8.45311 11.3472 8.73957V9.26041C11.3472 9.54687 11.1128 9.78124 10.8263 9.78124H10.3055C10.0191 9.78124 9.78468 9.54687 9.78468 9.26041V8.73957ZM8.74301 10.8229H9.26384C9.5503 10.8229 9.78468 11.0573 9.78468 11.3437V11.8646C9.78468 12.151 9.5503 12.3854 9.26384 12.3854H8.74301C8.45655 12.3854 8.22218 12.151 8.22218 11.8646V11.3437C8.22218 11.0573 8.45655 10.8229 8.74301 10.8229ZM7.70134 8.21874C7.9878 8.21874 8.22218 8.45311 8.22218 8.73957V9.26041C8.22218 9.54687 7.9878 9.78124 7.70134 9.78124H7.18051C6.89405 9.78124 6.65968 9.54687 6.65968 9.26041V8.73957C6.65968 8.45311 6.89405 8.21874 7.18051 8.21874H7.70134ZM3.27426 3.27082V2.22916H9.52426V3.27082H3.27426ZM4.57634 9.78124H4.05551C3.76905 9.78124 3.53468 9.54687 3.53468 9.26041V8.73957C3.53468 8.45311 3.76905 8.21874 4.05551 8.21874H4.57634C4.8628 8.21874 5.09718 8.45311 5.09718 8.73957V9.26041C5.09718 9.54687 4.8628 9.78124 4.57634 9.78124ZM5.09718 11.8646V11.3437C5.09718 11.0573 5.33155 10.8229 5.61801 10.8229H6.13884C6.4253 10.8229 6.65968 11.0573 6.65968 11.3437V11.8646C6.65968 12.151 6.4253 12.3854 6.13884 12.3854H5.61801C5.33155 12.3854 5.09718 12.151 5.09718 11.8646ZM12.1284 15.5104C12.1284 15.6536 12.0112 15.7708 11.868 15.7708H6.13884C5.99562 15.7708 5.87843 15.6536 5.87843 15.5104V14.9896C5.87843 14.8463 5.99562 14.7292 6.13884 14.7292H11.868C12.0112 14.7292 12.1284 14.8463 12.1284 14.9896V15.5104ZM12.9097 11.8646C12.9097 12.151 12.6753 12.3854 12.3888 12.3854H11.868C11.5816 12.3854 11.3472 12.151 11.3472 11.8646V11.3437C11.3472 11.0573 11.5816 10.8229 11.868 10.8229H12.3888C12.6753 10.8229 12.9097 11.0573 12.9097 11.3437V11.8646ZM14.4722 9.26041C14.4722 9.54687 14.2378 9.78124 13.9513 9.78124H13.4305C13.1441 9.78124 12.9097 9.54687 12.9097 9.26041V8.73957C12.9097 8.45311 13.1441 8.21874 13.4305 8.21874H13.9513C14.2378 8.21874 14.4722 8.45311 14.4722 8.73957V9.26041Z" fill="#714333"/>
</svg>
