<svg width="103" height="103" viewBox="0 0 103 103" fill="none" xmlns="http://www.w3.org/2000/svg">
<path d="M25.875 25.875V5.375C25.875 4.01577 26.415 2.7122 27.3761 1.75108C28.3372 0.789954 29.6408 0.25 31 0.25H97.625C98.9842 0.25 100.288 0.789954 101.249 1.75108C102.21 2.7122 102.75 4.01577 102.75 5.375V72C102.75 73.3592 102.21 74.6628 101.249 75.6239C100.288 76.5851 98.9842 77.125 97.625 77.125H77.125V97.5891C77.125 100.439 74.8239 102.75 71.9641 102.75H5.41088C4.73295 102.751 4.06155 102.618 3.4351 102.359C2.80865 102.099 2.23945 101.719 1.76008 101.24C1.28072 100.761 0.900596 100.191 0.641477 99.5649C0.382358 98.9384 0.249328 98.2671 0.250003 97.5891L0.265378 31.0359C0.265378 28.1864 2.5665 25.875 5.42625 25.875H25.875ZM36.125 25.875H71.9641C74.8136 25.875 77.125 28.1761 77.125 31.0359V66.875H92.5V10.5H36.125V25.875ZM33.5779 82.25L62.5649 53.2579L55.3181 46.0111L33.5779 67.7565L22.6975 56.8813L15.4508 64.128L33.5779 82.25Z" fill="#714333"/>
</svg>
