<svg width="18" height="17" viewBox="0 0 18 17" fill="none" xmlns="http://www.w3.org/2000/svg">
<path d="M14.8333 16.8333H3.16667C2.50363 16.8333 1.86774 16.5699 1.3989 16.1011C0.930059 15.6322 0.666667 14.9963 0.666667 14.3333V0.999959C0.666667 0.778946 0.754464 0.566984 0.910745 0.410704C1.06702 0.254423 1.27899 0.166626 1.5 0.166626H13.1667C13.3877 0.166626 13.5996 0.254423 13.7559 0.410704C13.9122 0.566984 14 0.778946 14 0.999959V11H17.3333V14.3333C17.3333 14.9963 17.0699 15.6322 16.6011 16.1011C16.1323 16.5699 15.4964 16.8333 14.8333 16.8333ZM14 12.6666V14.3333C14 14.5543 14.0878 14.7663 14.2441 14.9225C14.4004 15.0788 14.6123 15.1666 14.8333 15.1666C15.0543 15.1666 15.2663 15.0788 15.4226 14.9225C15.5789 14.7663 15.6667 14.5543 15.6667 14.3333V12.6666H14ZM4 4.33329V5.99996H10.6667V4.33329H4ZM4 7.66663V9.33329H10.6667V7.66663H4ZM4 11V12.6666H8.16667V11H4Z" fill="#714333"/>
</svg>
